<svg width="822" height="665" viewBox="0 0 822 665" fill="none" xmlns="http://www.w3.org/2000/svg">
<g opacity="0.5">
<path d="M810.728 363.394L361.889 490.666L771.397 259.924C752.727 225.721 729.29 194.345 701.789 166.739L304.474 385.405L637.096 113.801C589.39 82.242 535.571 61.0848 479.145 51.7064L294.905 359.307L416.93 46.1856C415.113 46.1619 413.297 46.1348 411.475 46.1348C185.185 46.1348 1.74075 229.579 1.74075 455.869C1.62201 530.714 22.1025 604.149 60.9391 668.13H762.01C817.214 576.735 834.686 467.445 810.728 363.394V363.394Z" fill="#F2F2F2"/>
<path d="M708.118 344.519H114.83V668.13H708.118V344.519Z" fill="#3F3D56"/>
<path d="M590.678 381.925H219.221V383.665H590.678V381.925Z" fill="#2F2E41"/>
<path d="M319.075 468.595H183.555V483.995H319.075V468.595Z" fill="#6C63FF"/>
<path d="M411.475 494.774H183.555V504.014H411.475V494.774Z" fill="#F2F2F2"/>
<path d="M399.155 514.794H183.555V524.034H399.155V514.794Z" fill="#F2F2F2"/>
<path d="M340.635 534.814H183.555V544.054H340.635V534.814Z" fill="#F2F2F2"/>
<path d="M735.955 638.491C735.955 610.508 721.756 587.823 704.241 587.823C693.232 587.823 683.536 596.788 677.85 610.394C675.928 609.596 673.869 609.183 671.789 609.178C666.487 609.178 661.585 611.895 657.588 616.492C652.462 599.528 641.592 587.823 629.011 587.823C617.248 587.823 606.988 598.063 601.513 613.26C598.471 610.693 594.639 609.251 590.659 609.178C577.217 609.178 566.32 626.587 566.32 648.062C566.264 655.221 567.565 662.325 570.155 669H729.559C733.572 660.512 735.955 649.947 735.955 638.491Z" fill="#6C63FF"/>
<path d="M174.684 113.688C197.269 113.688 215.579 95.3787 215.579 72.7931C215.579 50.2075 197.269 31.8983 174.684 31.8983C152.098 31.8983 133.789 50.2075 133.789 72.7931C133.789 95.3787 152.098 113.688 174.684 113.688Z" fill="#FF6584"/>
<path d="M148.812 150.32C150.374 149.65 152.113 149.514 153.76 149.934C155.407 150.354 156.869 151.307 157.92 152.643C161.552 157.177 166.508 167.127 164.605 186.644L157.236 262.235L156.063 338.429C156.063 338.429 144.979 373.558 128.749 373.227C112.518 372.896 142.191 339.579 142.191 339.579C142.191 339.579 138.076 279.131 139.767 261.783C141.344 245.61 125.737 160.356 148.812 150.32Z" fill="#FFB8B8"/>
<path d="M168.823 115.735L178.127 140.951L164.827 145.059L162.959 181.651L195.935 163.889L212.544 145.588L214.616 131.544C214.616 131.544 201.809 129.323 197.152 101.04L168.823 115.735Z" fill="#FFB8B8"/>
<path d="M106.387 326.403C106.387 326.403 48.2053 384.819 63.1976 415.62C78.1899 446.421 151.357 554.244 151.357 554.244L170.93 529.316C170.93 529.316 151.691 515.328 142.731 482.547C133.77 449.766 113.49 427.125 107.504 419.067C101.518 411.009 163.706 354.619 158.213 340.232C152.719 325.844 106.387 326.403 106.387 326.403Z" fill="#FFB8B8"/>
<path opacity="0.1" d="M106.387 326.403C106.387 326.403 48.2053 384.819 63.1976 415.62C78.1899 446.421 151.357 554.244 151.357 554.244L170.93 529.316C170.93 529.316 151.691 515.328 142.731 482.547C133.77 449.766 113.49 427.125 107.504 419.067C101.518 411.009 163.706 354.619 158.213 340.232C152.719 325.844 106.387 326.403 106.387 326.403Z" fill="black"/>
<path d="M142.945 536.444C142.945 536.444 136.866 548.462 138.697 553.258C140.528 558.054 150.13 585.741 150.13 585.741C150.13 585.741 139.907 625.847 147.324 624.954C154.741 624.062 181.582 597.006 180.392 587.117L176.972 558.685L185.281 565.21L195.858 548.889L181.117 530.597C181.117 530.597 165.288 513.691 160.343 514.286C155.399 514.881 142.945 536.444 142.945 536.444Z" fill="#2F2E41"/>
<path d="M154.503 340.678L150.6 349.926L134.206 422.125C134.206 422.125 127.681 430.434 129.717 457.778C131.753 485.122 96.8265 590.902 96.8265 590.902L95.6465 612.362L116.661 609.834L130.992 583.029C130.992 583.029 136.373 554.792 152.09 529.075C167.806 503.357 167.787 440.657 167.787 440.657L210.084 344.023L176.8 327.963L154.503 340.678Z" fill="#FFB8B8"/>
<path d="M103.993 577.499C103.993 577.499 97.6637 577.007 96.7249 579.628C95.7862 582.249 76.8637 633.433 76.8637 633.433C76.8637 633.433 40.8765 667.86 58.48 668.25C76.0836 668.64 105.602 663.835 110.593 653.202C115.584 642.569 121.365 628.079 121.365 628.079L123.15 642.913L137.091 633.711C137.091 633.711 144.888 583.865 135.789 581.198C126.69 578.531 103.993 577.499 103.993 577.499Z" fill="#2F2E41"/>
<path d="M125.217 295.294C125.217 295.294 110.485 308.353 111.87 309.44C113.255 310.528 103.515 312.954 105.346 317.749C107.177 322.545 97.0925 332.537 102.037 331.942C106.982 331.347 126.165 324.023 147.384 344.043L151.093 343.596L150.6 349.926C150.6 349.926 165.973 331.774 205.688 359.6C205.688 359.6 218.84 354.256 217.009 349.46C215.178 344.664 238.367 339.366 225.847 308.267C213.327 277.169 174.56 278.071 174.56 278.071L125.217 295.294Z" fill="#2F2E41"/>
<path d="M205.024 135.206C205.024 135.206 211.399 125.66 215.257 126.45C219.114 127.24 240.203 126.764 243.568 133.883C246.932 141.003 230.91 214.858 233.484 225.835C236.059 236.811 249.732 319.187 237.966 325.619C226.199 332.051 212.443 301.101 212.443 301.101C212.443 301.101 175.451 285.487 144.055 295.535C112.659 305.582 122.297 291.882 122.297 291.882C122.297 291.882 144.789 270.365 141.368 241.934C137.947 213.503 136.414 211.179 142.195 196.689C142.195 196.689 143.226 173.992 142.482 167.811C141.739 161.631 137.138 154.66 140.549 151.742C143.96 148.823 179.362 140.801 179.362 140.801C179.362 140.801 161.415 147.977 169.575 153.265C177.736 158.554 205.024 135.206 205.024 135.206Z" fill="#3F3D56"/>
<path d="M173.563 122.474C190.066 122.474 203.445 109.096 203.445 92.5924C203.445 76.0893 190.066 62.7109 173.563 62.7109C157.06 62.7109 143.682 76.0893 143.682 92.5924C143.682 109.096 157.06 122.474 173.563 122.474Z" fill="#FFB8B8"/>
<path d="M236.372 130.423C234.795 129.788 233.053 129.692 231.416 130.149C229.779 130.606 228.338 131.592 227.319 132.951C223.79 137.566 219.059 147.625 221.402 167.095L230.474 242.5L233.366 318.648C233.366 318.648 231.498 355.24 247.717 354.543C263.936 353.846 247.261 319.485 247.261 319.485C247.261 319.485 250.011 258.96 247.929 241.654C245.988 225.52 259.667 139.937 236.372 130.423Z" fill="#FFB8B8"/>
<path d="M196.03 0C192.939 4.41349 188.359 7.56232 183.131 8.86699C174.112 11.2822 183.058 24.8361 183.058 24.8361C183.058 24.8361 179.805 19.9074 184.497 14.6878C189.189 9.4682 196.74 5.89968 196.03 0Z" fill="#FF6584"/>
<path d="M181.459 39.4838C187.754 39.4838 192.856 34.3812 192.856 28.0869C192.856 21.7925 187.754 16.6899 181.459 16.6899C175.165 16.6899 170.062 21.7925 170.062 28.0869C170.062 34.3812 175.165 39.4838 181.459 39.4838Z" fill="#FF6584"/>
<path d="M196.011 37.6399C186.72 34.1257 171.25 32.3439 163.291 33.5619L164.383 25.5914C172.034 29.546 187.434 31.4045 197.103 29.6694L196.011 37.6399Z" fill="#3F3D56"/>
<path d="M178.033 40.4922C178.033 40.4922 166.389 59.8602 139.312 67.1107C112.236 74.3612 139.091 115.05 139.091 115.05C139.091 115.05 129.326 100.254 143.411 84.5846C157.497 68.9155 180.164 58.2029 178.033 40.4922Z" fill="#FF6584"/>
<path d="M178.958 39.3164C178.958 39.3164 190.144 65.9194 202.424 68.4345C214.705 70.9496 213.774 112.985 194.569 119.288C194.569 119.288 208.573 94.6454 196.602 78.1185C184.632 61.5916 177.071 48.5269 178.958 39.3164Z" fill="#FF6584"/>
<path d="M689.85 354.958H650.703V369.746H689.85V354.958Z" fill="#6C63FF"/>
<path opacity="0.4" d="M609.813 547.534C637.201 547.534 659.403 525.332 659.403 497.944C659.403 470.556 637.201 448.354 609.813 448.354C582.425 448.354 560.223 470.556 560.223 497.944C560.223 525.332 582.425 547.534 609.813 547.534Z" fill="#6C63FF"/>
<path opacity="0.4" d="M518.033 556.415C537.246 556.415 552.82 540.841 552.82 521.628C552.82 502.416 537.246 486.841 518.033 486.841C498.821 486.841 483.246 502.416 483.246 521.628C483.246 540.841 498.821 556.415 518.033 556.415Z" fill="#6C63FF"/>
</g>
</svg>
